<?xml version="1.0" encoding="UTF-8" standalone="no"?>
<svg xmlns:dc="http://purl.org/dc/elements/1.1/" xmlns:cc="http://creativecommons.org/ns#" xmlns:rdf="http://www.w3.org/1999/02/22-rdf-syntax-ns#" xmlns:svg="http://www.w3.org/2000/svg" xmlns="http://www.w3.org/2000/svg" width="39.422916mm" height="39.422916mm" viewBox="0 0 39.422916 39.422916" version="1.1" id="svg8">
  <defs id="defs2">
    <clipPath id="clip0">
      <rect id="rect863" fill="#ffffff" height="48" width="104" x="0" y="0" />
    </clipPath>
    <filter style="color-interpolation-filters:sRGB" id="filter1087" x="-0.01647024" width="1.0329405" y="-0.01647024" height="1.0329405">
      <feGaussianBlur stdDeviation="0.8" id="feGaussianBlur1089" />
    </filter>
    <clipPath clipPathUnits="userSpaceOnUse" id="clipPath1124">
      <rect style="opacity:0.391855;fill:#000000;stroke:none;stroke-width:0.652161;stroke-linecap:round;stroke-miterlimit:4;stroke-dasharray:1.30432, 0.652161;stroke-dashoffset:0" id="rect1126" width="39.422916" height="39.422916" x="49.327778" y="79.361839" />
    </clipPath>
  </defs>
  <metadata id="metadata5">
    <rdf:RDF>
      <cc:Work rdf:about="">
        <dc:format>image/svg+xml</dc:format>
        <dc:type rdf:resource="http://purl.org/dc/dcmitype/StillImage" />
        <dc:title></dc:title>
      </cc:Work>
    </rdf:RDF>
  </metadata>
  <g id="layer1" transform="translate(-64.489316,-79.521109)">
    <g id="g1122" transform="matrix(-1,0,0,1,153.24001,0.15927019)" clip-path="url(#clipPath1124)">
      <rect style="opacity:0.5;fill:#000000;stroke:none;stroke-width:0.499999;stroke-linecap:round;filter:url(#filter1087)" id="rect973" width="7.6526337" height="78.852264" x="-115.81944" y="-60.663422" transform="rotate(-135)" ry="0" />
      <rect ry="0" transform="rotate(-135)" y="-60.663422" x="-115.81944" height="78.852264" width="7.6526337" id="rect833" style="fill:#2f2f2f;stroke:none;stroke-width:0.499999;stroke-linecap:round" />
      <g transform="rotate(-45,64.173524,94.208354)" id="g857">
        <path style="fill:none;stroke:#ffffff;stroke-width:0.265;stroke-linecap:butt;stroke-linejoin:miter;stroke-miterlimit:4;stroke-dasharray:0.53, 0.265;stroke-dashoffset:0;stroke-opacity:1" d="m 32.651391,90.998692 63.045351,-2e-6" id="path849" />
        <path id="path853" d="m 32.651391,97.418468 63.045351,-2e-6" style="fill:none;stroke:#ffffff;stroke-width:0.265;stroke-linecap:butt;stroke-linejoin:miter;stroke-miterlimit:4;stroke-dasharray:0.53, 0.265;stroke-dashoffset:0;stroke-opacity:1" />
      </g>
      <g aria-label="Paid Support" transform="matrix(-0.70710678,0.70710678,0.70710678,0.70710678,0,0)" id="text890" style="font-style:normal;font-variant:normal;font-weight:normal;font-stretch:normal;font-size:6.40732px;line-height:1.25;font-family:Franchise;-inkscape-font-specification:Franchise;letter-spacing:0.120137px;word-spacing:0px;fill:#ffffff;fill-opacity:1;stroke:none;stroke-width:0.120137">
        <path d="m 9.7353911,109.75056 q 0.1665903,0 0.3139589,0.0641 0.147368,0.0641 0.256293,0.17299 0.108924,0.10893 0.172997,0.2563 0.06407,0.14737 0.06407,0.31396 v 1.04439 q 0,0.16659 -0.06407,0.31396 -0.06407,0.14737 -0.172997,0.25629 -0.108925,0.10892 -0.256293,0.173 -0.1473686,0.0641 -0.3139589,0.0641 h -0.301144 v 1.73638 q 0,0.0897 -0.089702,0.0897 H 8.7742931 q -0.089702,0 -0.089702,-0.0897 v -4.30571 q 0,-0.0897 0.089702,-0.0897 z m 0.057666,0.83936 q 0,-0.0641 -0.044851,-0.10892 -0.044851,-0.0448 -0.1089244,-0.0448 H 9.4342471 v 1.28787 h 0.2050342 q 0.064073,0 0.1089244,-0.0448 0.044851,-0.0448 0.044851,-0.10893 z" style="font-style:normal;font-variant:normal;font-weight:normal;font-stretch:normal;font-family:Franchise;-inkscape-font-specification:Franchise;fill:#ffffff;stroke-width:0.120137" id="path1151" />
        <path d="m 12.841328,114.14598 q 0.01281,0.0897 -0.07689,0.0897 h -0.583066 q -0.08329,0 -0.09611,-0.0897 l -0.05126,-0.62791 h -0.397254 l -0.05126,0.62791 q -0.01281,0.0897 -0.09611,0.0897 h -0.583066 q -0.0897,0 -0.07689,-0.0897 l 0.480549,-3.66498 q 0.01282,-0.0897 0.102518,-0.0897 h 0.845766 q 0.0897,0 0.102517,0.0897 z m -0.858581,-1.34553 -0.121739,-1.41602 h -0.05126 l -0.121739,1.41602 z" style="font-style:normal;font-variant:normal;font-weight:normal;font-stretch:normal;font-family:Franchise;-inkscape-font-specification:Franchise;fill:#ffffff;stroke-width:0.120137" id="path1153" />
        <path d="m 14.133998,114.14598 q 0,0.0897 -0.0897,0.0897 h -0.570251 q -0.0897,0 -0.0897,-0.0897 V 110.481 q 0,-0.0897 0.0897,-0.0897 h 0.570251 q 0.0897,0 0.0897,0.0897 z" style="font-style:normal;font-variant:normal;font-weight:normal;font-stretch:normal;font-family:Franchise;-inkscape-font-specification:Franchise;fill:#ffffff;stroke-width:0.120137" id="path1155" />
        <path d="m 15.881587,110.3913 q 0.16659,0 0.313959,0.0641 0.147368,0.0641 0.256292,0.173 0.108925,0.10892 0.172998,0.25629 0.06407,0.14737 0.06407,0.31396 v 2.22974 q 0,0.1666 -0.06407,0.31396 -0.06407,0.14737 -0.172998,0.2563 -0.108924,0.10892 -0.256292,0.17299 -0.147369,0.0641 -0.313959,0.0641 h -0.961098 q -0.0897,0 -0.0897,-0.0897 V 110.481 q 0,-0.0897 0.0897,-0.0897 z m 0.05767,0.83935 q 0,-0.0641 -0.04485,-0.10892 -0.04485,-0.0448 -0.108925,-0.0448 h -0.205034 v 2.47322 h 0.205034 q 0.06407,0 0.108925,-0.0448 0.04485,-0.0448 0.04485,-0.10892 z" style="font-style:normal;font-variant:normal;font-weight:normal;font-stretch:normal;font-family:Franchise;-inkscape-font-specification:Franchise;fill:#ffffff;stroke-width:0.120137" id="path1157" />
        <path d="m 19.242219,109.70571 q 0.16659,0 0.313959,0.0641 0.147368,0.0641 0.256292,0.17299 0.108925,0.10893 0.172998,0.2563 0.06407,0.14736 0.06407,0.31395 v 0.24348 q 0,0.0897 -0.08329,0.11533 l -0.583066,0.15378 q -0.08329,0.0256 -0.08329,-0.0641 v -0.41648 q 0,-0.0641 -0.04485,-0.10892 -0.04485,-0.0448 -0.108925,-0.0448 h -0.05126 q -0.06407,0 -0.108925,0.0448 -0.04485,0.0448 -0.04485,0.10892 v 0.58307 q 0.0064,0.0705 0.02563,0.12174 0.01922,0.0512 0.07048,0.10251 l 0.839359,0.62792 q 0.102517,0.0897 0.128146,0.18581 0.03204,0.0897 0.04485,0.20504 v 1.10206 q 0,0.16659 -0.06407,0.31395 -0.06407,0.14737 -0.172998,0.2563 -0.108924,0.10892 -0.256292,0.173 -0.147369,0.0641 -0.313959,0.0641 h -0.243478 q -0.16659,0 -0.313959,-0.0641 -0.147368,-0.0641 -0.256293,-0.173 -0.108924,-0.10893 -0.172997,-0.2563 -0.06407,-0.14736 -0.06407,-0.31395 v -0.61511 q 0,-0.0897 0.08329,-0.11533 l 0.583066,-0.15377 q 0.08329,-0.0256 0.08329,0.0641 v 0.7881 q 0,0.0641 0.04485,0.10892 0.04485,0.0449 0.108925,0.0449 h 0.05126 q 0.06407,0 0.108925,-0.0449 0.04485,-0.0448 0.04485,-0.10892 v -0.84577 q -0.0064,-0.0833 -0.02563,-0.14737 -0.01922,-0.0641 -0.07689,-0.11533 l -0.826545,-0.63432 q -0.09611,-0.0897 -0.140961,-0.17941 -0.03844,-0.0897 -0.03844,-0.23707 v -0.76888 q 0,-0.16659 0.06407,-0.31395 0.06407,-0.14737 0.172997,-0.2563 0.108925,-0.10892 0.256293,-0.17299 0.147369,-0.0641 0.313959,-0.0641 h 0.243478 z" style="font-style:normal;font-variant:normal;font-weight:normal;font-stretch:normal;font-family:Franchise;-inkscape-font-specification:Franchise;fill:#ffffff;stroke-width:0.120137" id="path1159" />
        <path d="m 22.354564,110.3913 q 0.0897,0 0.0897,0.0897 v 2.99222 q 0,0.16659 -0.06407,0.31395 -0.06407,0.14737 -0.172998,0.2563 -0.108924,0.10892 -0.256293,0.173 -0.147368,0.0641 -0.313958,0.0641 h -0.243479 q -0.16659,0 -0.313958,-0.0641 -0.147369,-0.0641 -0.256293,-0.173 -0.108924,-0.10893 -0.172998,-0.2563 -0.06407,-0.14736 -0.06407,-0.31395 V 110.481 q 0,-0.0897 0.0897,-0.0897 h 0.570251 q 0.0897,0 0.0897,0.0897 v 2.96018 q 0,0.0641 0.04485,0.10892 0.04485,0.0449 0.108924,0.0449 h 0.05126 q 0.06407,0 0.108924,-0.0449 0.04485,-0.0448 0.04485,-0.10892 V 110.481 q 0,-0.0897 0.0897,-0.0897 h 0.570251 z" style="font-style:normal;font-variant:normal;font-weight:normal;font-stretch:normal;font-family:Franchise;-inkscape-font-specification:Franchise;fill:#ffffff;stroke-width:0.120137" id="path1161" />
        <path d="m 24.127781,110.3913 q 0.166591,0 0.313959,0.0641 0.147368,0.0641 0.256293,0.173 0.108924,0.10892 0.172997,0.25629 0.06407,0.14737 0.06407,0.31396 v 0.85217 q 0,0.16659 -0.06407,0.31396 -0.06407,0.14737 -0.172997,0.25629 -0.108925,0.10893 -0.256293,0.173 -0.147368,0.0641 -0.313959,0.0641 h -0.301144 v 1.28787 q 0,0.0897 -0.0897,0.0897 h -0.570252 q -0.0897,0 -0.0897,-0.0897 V 110.481 q 0,-0.0897 0.0897,-0.0897 z m 0.05767,0.83935 q 0,-0.0641 -0.04485,-0.10892 -0.04485,-0.0448 -0.108924,-0.0448 h -0.205035 v 1.09565 h 0.205035 q 0.06407,0 0.108924,-0.0448 0.04485,-0.0448 0.04485,-0.10893 z" style="font-style:normal;font-variant:normal;font-weight:normal;font-stretch:normal;font-family:Franchise;-inkscape-font-specification:Franchise;fill:#ffffff;stroke-width:0.120137" id="path1163" />
        <path d="m 26.522514,110.3913 q 0.16659,0 0.313959,0.0641 0.147368,0.0641 0.256292,0.173 0.108925,0.10892 0.172998,0.25629 0.06407,0.14737 0.06407,0.31396 v 0.85217 q 0,0.16659 -0.06407,0.31396 -0.06407,0.14737 -0.172998,0.25629 -0.108924,0.10893 -0.256292,0.173 -0.147369,0.0641 -0.313959,0.0641 H 26.22137 v 1.28787 q 0,0.0897 -0.0897,0.0897 h -0.570251 q -0.0897,0 -0.0897,-0.0897 V 110.481 q 0,-0.0897 0.0897,-0.0897 z m 0.05767,0.83935 q 0,-0.0641 -0.04485,-0.10892 -0.04485,-0.0448 -0.108924,-0.0448 H 26.22137 v 1.09565 h 0.205034 q 0.06407,0 0.108924,-0.0448 0.04485,-0.0448 0.04485,-0.10893 z" style="font-style:normal;font-variant:normal;font-weight:normal;font-stretch:normal;font-family:Franchise;-inkscape-font-specification:Franchise;fill:#ffffff;stroke-width:0.120137" id="path1165" />
        <path d="m 29.660496,113.47322 q 0,0.16659 -0.06407,0.31395 -0.06407,0.14737 -0.172997,0.2563 -0.108925,0.10892 -0.256293,0.173 -0.147369,0.0641 -0.313959,0.0641 h -0.243478 q -0.16659,0 -0.313959,-0.0641 -0.147368,-0.0641 -0.256293,-0.173 -0.108924,-0.10893 -0.172997,-0.2563 -0.06407,-0.14736 -0.06407,-0.31395 v -2.31945 q 0,-0.16659 0.06407,-0.31396 0.06407,-0.14737 0.172997,-0.2563 0.108925,-0.10892 0.256293,-0.17299 0.147369,-0.0641 0.313959,-0.0641 h 0.243478 q 0.16659,0 0.313959,0.0641 0.147368,0.0641 0.256293,0.17299 0.108924,0.10893 0.172997,0.2563 0.06407,0.14737 0.06407,0.31396 z M 28.91084,111.1858 q 0,-0.0641 -0.04485,-0.10892 -0.04485,-0.0448 -0.108925,-0.0448 h -0.05126 q -0.06407,0 -0.108925,0.0448 -0.04485,0.0448 -0.04485,0.10892 v 2.25538 q 0,0.0641 0.04485,0.10892 0.04485,0.0449 0.108925,0.0449 h 0.05126 q 0.06407,0 0.108925,-0.0449 0.04485,-0.0448 0.04485,-0.10892 z" style="font-style:normal;font-variant:normal;font-weight:normal;font-stretch:normal;font-family:Franchise;-inkscape-font-specification:Franchise;fill:#ffffff;stroke-width:0.120137" id="path1167" />
        <path d="m 31.042867,114.14598 q 0,0.0897 -0.09611,0.0897 h -0.570252 q -0.0833,0 -0.0833,-0.0897 V 110.481 q 0,-0.0897 0.0897,-0.0897 h 0.961098 q 0.16659,0 0.313958,0.0641 0.147369,0.0641 0.256293,0.173 0.108925,0.10892 0.172998,0.25629 0.06407,0.14737 0.06407,0.31396 v 0.7881 q 0,0.23707 -0.140961,0.42929 -0.140961,0.18581 -0.339588,0.28833 l 0.608696,1.44164 q 0.01922,0.0897 -0.06407,0.0897 H 31.63234 q -0.03844,0 -0.07689,-0.0256 -0.03204,-0.0256 -0.04485,-0.0641 l -0.467734,-1.18535 z m 0,-2.03752 h 0.205034 q 0.06407,0 0.108924,-0.0448 0.04485,-0.0449 0.04485,-0.10893 v -0.72403 q 0,-0.0641 -0.04485,-0.10892 -0.04485,-0.0448 -0.108924,-0.0448 h -0.205034 z" style="font-style:normal;font-variant:normal;font-weight:normal;font-stretch:normal;font-family:Franchise;-inkscape-font-specification:Franchise;fill:#ffffff;stroke-width:0.120137" id="path1169" />
        <path d="m 34.341023,110.3913 q 0.0897,0 0.0897,0.0897 v 0.57025 q 0,0.0897 -0.0897,0.0897 h -0.454919 v 3.00503 q 0,0.0897 -0.0897,0.0897 H 33.22615 q -0.03204,0 -0.06407,-0.0256 -0.02563,-0.0256 -0.02563,-0.0641 v -3.00503 h -0.448512 q -0.0897,0 -0.0897,-0.0897 V 110.481 q 0,-0.0897 0.0897,-0.0897 h 1.653088 z" style="font-style:normal;font-variant:normal;font-weight:normal;font-stretch:normal;font-family:Franchise;-inkscape-font-specification:Franchise;fill:#ffffff;stroke-width:0.120137" id="path1171" />
      </g>
    </g>
  </g>
</svg>
